<?xml version="1.0" encoding="UTF-8"?>
<!DOCTYPE svg PUBLIC "-//W3C//DTD SVG 1.1//EN" "http://www.w3.org/Graphics/SVG/1.1/DTD/svg11.dtd">
<!-- Creator: CorelDRAW 2018 (64-Bit) -->
<svg xmlns="http://www.w3.org/2000/svg" xml:space="preserve" width="210mm" height="297mm" version="1.1" style="shape-rendering:geometricPrecision; text-rendering:geometricPrecision; image-rendering:optimizeQuality; fill-rule:evenodd; clip-rule:evenodd"
viewBox="0 0 21000 29700"
 xmlns:xlink="http://www.w3.org/1999/xlink">
 <defs>
  <style type="text/css">
   <![CDATA[
    .str0 {stroke:#DFDCD8;stroke-width:500;stroke-linejoin:round;stroke-miterlimit:22.9256}
    .fil4 {fill:#767676}
    .fil2 {fill:#777777}
    .fil0 {fill:#787878}
    .fil6 {fill:#FBFBFB}
    .fil5 {fill:#FCFCFC}
    .fil3 {fill:#FDFDFD}
    .fil1 {fill:#FEFEFE}
   ]]>
  </style>
 </defs>
 <g id="Livello_x0020_1">
  <metadata id="CorelCorpID_0Corel-Layer"/>
  <circle class="fil0 str0" cx="10107.84" cy="14927.67" r="22500"/>
  <g id="_3244067408912">
   <path class="fil1" d="M6361.27 2093.74l800.55 8.9 2.42 15982.17 -790.52 12.37 -13.93 584.19 2644.58 4.97 -1.89 -589.3 -837.27 -5.26 2.63 -8356.54c1343.41,-195.56 1737.98,470.78 1946.57,1587.89 346.64,1856.45 54.58,5165.18 534.52,6630.74 148.54,453.61 375.31,904.7 751.05,1048.33 522.42,199.71 962.06,-237.71 1231.19,-427.17l0.17 -628.72c-169.77,80.62 -664.86,596.78 -963.09,46.39 -529.75,-977.65 182.85,-4602.91 -715.62,-6834.07 -326.85,-811.64 -688.48,-1106.09 -1281.51,-1540.34l-102.04 -108.86c168.13,-93.66 486.65,-138.83 700.93,-251.91 649.32,-342.66 1018.13,-955.45 1234.33,-1693.47 294.12,-1003.99 339.54,-2516.48 154.03,-3567.64 -189.52,-1073.84 -650.08,-2056.77 -1512.67,-2366.59 -548.72,-197.09 -3038.36,-144.1 -3775.11,-116.4l-9.32 580.32z"/>
   <path class="fil1" d="M13309.64 2097.12l778.69 4.2 1.15 15991.69 -767.24 3.29 -13.66 585.07 1877.32 5.61 -3.22 -592.76 -781.87 0.42 2.94 -15669.71 1975.47 16255.57 276.99 4.65 2026.79 -16265.57 24.14 15673.16 -795.36 3.89 -13.95 580.51 2604.99 9.58 -2.06 -588.26 -792 -3.17 3.94 -15995.25 787.22 0.22 2.73 -588.62 -2063.01 -1.36 -1544.17 12612.76c-81.93,-193.43 -170.36,-1247.71 -204.5,-1543.07l-1107.11 -9471.92c-56.79,-473.88 -93.14,-1159.52 -196.58,-1599.82l-2066.88 2.01 -10.76 586.88z"/>
   <path class="fil1" d="M21986.07 18091.82l-771.36 3.73 -21.04 591.85 2017.1 -1.86 -1.26 -582.04 -881.75 -8.95 729.26 -5632.55c55.17,-14.09 1805.63,-72.55 1962.67,16.3l726.53 5618.91 -826.03 -2.13 -14.41 592.62 2610.19 -1.76 -1.45 -584.81 -695.41 -7.02c-101.91,-190.29 -1589.2,-12402.22 -1884.45,-14666.38 -90.27,-692.23 -219.7,-1460.18 -267.48,-2141.72l-414.72 -1.94c-152.93,1395.09 -367.15,2837.91 -558.55,4216.69 -175.44,1263.78 -1609.78,12407.54 -1707.84,12591.06z"/>
   <path class="fil1" d="M-99.32 2099.5l912.71 2.47 1.6 15984.41 -900.5 10.15 -14.7 588.76 5443.29 1.07 135.73 -4812.78 -272.75 7.11c-95.55,1112.67 -156.28,2310.8 -518.55,3271.61 -448,1188.21 -1521.44,928.77 -2866.27,944.29l3.43 -7954.52c841.9,34.66 1108.91,278.63 1310.63,1001.7 169.59,607.92 211.97,1448.03 219.65,2109.81l223.45 1.86 1.5 -6504.49 -185.22 0.51c-29.37,42.74 -16.8,11.22 -36.07,83.32 -38.56,144.24 -49.92,1148.75 -222.74,1813.69 -192.33,739.97 -481.92,842.06 -1291.58,851 -57.52,-248.91 -27.53,-7135.02 -15.72,-7400.73 1203.5,15.13 2118.39,-222.54 2597.75,770.9 430.12,891.42 430.9,1784.15 550.1,2827.69l216.4 -1.63 3.33 -4184.9 -5286.11 -0.85 -9.36 589.55z"/>
   <path class="fil1" d="M-6960.29 2101.06l848.03 3 1.26 15968.43 -841.18 27.02 -6.98 566.41c192.77,50.59 5049.69,39.4 5181.02,-4.44l100.46 -4702.04c-28.75,-98.12 14.54,-16.96 -42.92,-82.64 -222.05,10.08 -144.28,85.89 -209.64,714.13 -80.97,778.41 -413.92,3384.55 -1271.33,3497.66 -283.98,37.47 -1613.21,31.95 -1901.5,-4.57l2.53 -15975.07 948.92 -9.05 0.61 -589.41 -2796.2 -0.58 -13.08 591.15z"/>
   <path class="fil2" d="M8167.95 9116.95c296.38,58.91 1110.93,15.5 1380.25,-85.03 1061.15,-396.09 1070,-2351.9 1078.16,-3403.05 7.67,-986.67 67.01,-3129.18 -1015.4,-3465.1 -245.13,-76.08 -1154.92,-90.8 -1441.3,-51.24l-1.71 7004.42z"/>
   <path class="fil2" d="M23153.1 11713.54l1755.52 6.54c29.6,-250.78 -817.42,-6884.67 -841.16,-6926.87l-914.36 6920.33z"/>
   <path class="fil3" d="M20635.75 21186.37c65.83,141.38 -38.06,35.87 142.45,88.52 95.86,27.96 33.28,-31.64 148.87,52.59 46.53,67.89 -536.04,2492.09 -654.66,2625.77 -146.66,165.25 -240.33,-15.75 -333.11,161.17 59.11,47.9 100.68,49.37 209.77,47.98l778.66 -4.21c349.14,9.43 646.91,3.18 945.93,-120.94 1066.01,-442.51 1429.11,-2077.43 662.57,-2696.3 -246.13,-198.72 -501.7,-193.66 -867.66,-193.05l-777.61 -2.15c-190.49,-0.2 -184.6,-0.38 -255.21,40.62z"/>
   <path class="fil3" d="M755.44 21177.13c70.9,207.23 154.5,17.12 275.1,152.2 98.41,110.23 -408,1906.45 -501.89,2283.32 -167.31,671.62 -299.94,274.19 -456.42,501.77 84.81,68.69 913.14,45.16 922.28,43.6l111.86 -43.6c-68.6,-119.66 -140.27,-61.63 -288.55,-102.93 -52.52,-215.05 163.19,-885.68 228.82,-1151.5l356.44 -52.22 346.39 1153.05c88.56,318.61 175.23,155.98 592.79,176.3l1828.53 8.86c230.08,-0.1 209.41,-48.38 259.89,-265.93 30.66,-132.18 111.11,-333.48 57.61,-440 -171.21,93.96 -170.04,406.59 -465.55,526.34 -248.89,100.86 -667.71,107.95 -875.27,16.42 -31.18,-215.44 135.45,-967.69 225.82,-1229.08 60.13,-173.91 -44.42,-135.33 709.6,-117.97l39.38 491.84c147.2,-47.69 99.82,-172.75 193.14,-527.49l122.85 -460.98c-4.32,-68.88 1.36,-34.25 -20.53,-75.83 -161.39,85.84 -115.54,295.64 -286.8,387.8 -134.6,72.44 -504.12,41.55 -679.42,43.71 37.48,-242.5 243.97,-1068.13 329.91,-1234.46 1106.72,-107.16 698.11,264.28 883.26,551.38 102.77,-51.3 33.2,34.8 85.59,-117.66l106.63 -515.62c-8.77,-4.51 -20.84,-22.58 -26.1,-13.94 -5.38,8.84 -20.8,-9.94 -28.09,-11.32l-1650.14 -6.12c-83.12,21.02 -30.89,-2.88 -83.7,39.3 81.29,114.8 147.44,54.84 289.21,106.36 53.16,241.03 -426.14,1951.75 -523.67,2331.31 -53.82,209.46 -77.32,366.7 -292.14,414.67 -180.78,40.38 -406.78,17.75 -487.75,-171.79 -103.38,-242.01 -274.54,-863.72 -348.56,-1128.33 280.1,-170.18 447.31,-196.53 624.8,-428.97 142.91,-187.16 305.86,-492.86 202.77,-825.91 -97.18,-313.93 -361.01,-337.3 -726.29,-335.96 -189.97,0.7 -958.03,-36.87 -1051.8,29.38z"/>
   <path class="fil3" d="M-1722.97 21186.37c49.67,141.63 -30.14,40.01 132.23,91.57 78.8,25.03 29.75,-22.28 146.56,49.54 75.52,96.4 -430.56,1917.46 -518.89,2262.83 -179,699.93 -349.14,266.48 -454.64,524.11 43.86,24.51 1675.86,165.14 2073.56,-176.12 201.77,-173.13 372.89,-408.24 334.78,-802.95 -38.09,-394.63 -232.28,-501.38 -569.14,-622.68 273.76,-102.36 483.87,-196.53 618.45,-376.48 148.11,-198.04 230.75,-534.97 42.12,-776.17 -193.04,-246.86 -440.54,-213.18 -814.88,-204.3 -204.35,4.84 -869.36,-39.69 -990.15,30.65z"/>
   <path class="fil1" d="M-1261.99 3754.96c351.67,229.63 -39.34,2035.16 -148.86,2394.92 -104.73,344.07 -239.87,684.45 -378.04,998.35 -144.91,329.2 -407.37,656.32 -213.93,1053.17 331.45,-312.93 878.61,-1917.18 1018.16,-2544.73 213.07,-958.21 261.1,-2257.36 24.73,-3222.79 -350.87,-1433.04 -1249.7,-1094.92 -1388.07,301.5 -45.63,460.5 -2.39,1241.32 226.62,1565.96 134.75,191.03 375.05,265.25 558.4,73.9 197.57,-206.2 160.57,-429.13 300.99,-620.28z"/>
   <path class="fil4" d="M20713.73 23983.45c315.56,161.61 871.43,59.07 1152.43,-130.28 670.63,-451.89 1330.65,-2580.27 -127.04,-2581.17 -545.73,-0.33 -405.35,-89.81 -725.24,1199.21 -85.62,345 -362.69,1220.52 -300.15,1512.24z"/>
   <path class="fil3" d="M25664.72 21186.37c44.95,155.89 -25.44,14.21 204.13,107.89 63.14,25.76 23.65,0.93 65.16,40.34 89.61,131.06 -251.32,1276.27 -313.4,1512.07 -66.53,252.68 -131.2,507.94 -190.48,760.75 -159.52,680.24 -299.25,278.07 -455.74,507 95.35,74.85 915.88,51.39 1009.46,13.9 6.22,-2.5 17.32,-8.09 24.81,-13.9 -65.37,-116.4 -146.93,-66.28 -289.75,-98.7 -53.22,-211.1 153.92,-904.91 230.14,-1159.68 54.67,-9.51 129.87,-25.91 179.18,-30.73l175.71 12.78c104.56,257.48 299.84,1136.49 424.39,1293.4 152.52,27.65 393.17,42.88 520.99,-17.07 -39.75,-113.71 40.99,0.47 -53.3,-62.63 -214.33,-143.44 -150.08,131.75 -346.01,-532.66 -73.31,-248.59 -184.15,-549.2 -242.29,-780.54 302.98,-181.96 426.11,-197.05 624.91,-434.05 147.04,-175.29 304.13,-505.35 204.07,-818.5 -99.15,-310.33 -362.9,-339.11 -723.34,-337.97 -208.8,0.65 -915.91,-47.3 -1048.64,38.3z"/>
   <path class="fil3" d="M-5201.75 21080.27c294.93,147.77 378.53,-200.45 65.81,988.57 -610.73,-448.38 -1587.02,527 -1696.94,1413.86 -86.29,696.17 307.71,923.88 763.32,515.54 152.29,-136.5 528.61,-699.52 664.5,-961.06 -2.15,351.58 -294.35,787.19 -156.33,1143.58 310.17,61.89 720.19,-478.07 737.14,-769.25 -176.06,102.48 -190.55,430.56 -458.61,489.93 -64.38,-382.59 680.58,-2492.76 721.57,-3088.35 -106.54,4 -166.98,88.3 -293.6,133.15 -150.61,53.34 -295.08,2.22 -346.86,134.03z"/>
   <path class="fil3" d="M11702.37 21186.37c60.02,175.89 133.85,12.67 304.34,138.18 88.58,101.14 -418.22,1920.18 -509.6,2284.74 -175.53,700.24 -302.84,270.18 -458.85,505.13 55.13,43.26 25.15,57.84 257.24,45.58l569.68 3.91c206.79,3.56 163.68,28.75 207.3,-100.72l-286.3 -46.15c-51.94,-200.67 204.85,-1165.29 293.21,-1373.91l1320.09 1.49c-1.72,176.64 -152.71,665.65 -201.92,865.92 -207.26,843.3 -335.23,356.01 -480.37,603.88 100.62,96.21 359.13,32.92 519.99,33.75 151.58,0.79 402.47,63.47 511.35,-33.75 -66.02,-145.22 -108.68,-21.61 -288.52,-116.73 -48.34,-197.2 569.71,-2545.2 629.31,-2629.71 61.76,-87.57 38.92,-55.37 155.17,-85.83 199.85,-52.38 109.02,45.2 163.37,-95.78 -77.76,-44.53 -949.32,-54.79 -1026.38,0 79.49,172.19 133.03,16.37 313.78,141.11 53.9,153.94 -174.65,1005.24 -261.31,1182.42l-1309.71 -0.12c-16.33,-143.22 132.1,-606.73 174.03,-781.65 166.76,-695.6 351.21,-301.32 439.44,-554.53 -84.18,-36.51 -962.89,-44.78 -1035.34,12.77z"/>
   <path class="fil5" d="M-2387.69 26624.2c135.64,25.41 125.97,-15.45 227.01,78.53 -27,223.22 -191.07,666.14 -265.6,904.49 -231.96,741.81 -124.4,573.78 -396.49,700.72 -72.66,33.89 -16.5,-12.05 -57.87,39.82 278.27,40.49 561.44,21.55 842.54,21.45 619.22,-0.22 1045.18,-269.15 874.48,-718.14 -61.18,-160.94 -166.92,-207.12 -354.09,-254.22 142.02,-97.76 324.33,-124.37 430.01,-251.63 109.87,-132.31 124.54,-358.16 -9.72,-478.11 -184.65,-164.96 -640.28,-82.15 -976.74,-95.81 -356.92,-14.49 -266.11,3.11 -313.53,52.9z"/>
   <path class="fil5" d="M22574.09 27401.11c-205.62,144.55 -562.94,119.54 -605.24,465.71 -72.79,595.78 1031.01,735.8 1318.35,194.96 118.91,-223.81 29.93,-439.66 -155.16,-578.32l-140.59 -106.06c-3.75,-3.33 -12.41,-11.07 -17.74,-17.42 225.76,-122.72 542.18,-104.9 572.37,-389.1 58.02,-546.16 -904.03,-593.59 -1175.89,-178.3 -219.81,335.77 44.89,478.85 203.9,608.53z"/>
   <path class="fil3" d="M23498.49 21186.37c75.33,114.31 151.34,58.79 290.2,102.91 47.11,236.33 -248.94,1241.77 -329.35,1549.07 -65.86,251.71 -123.81,498.53 -190.31,760.24 -176.3,693.86 -339.92,290.56 -462.67,515.83 90.73,80.49 1913.95,31.36 1941.48,17.29 107.3,-99.09 94.42,-189.47 129.71,-334.17 63.25,-259.38 96.98,-249.81 36.57,-359.78 -164.2,82.31 -39.24,72.7 -199.08,300.85 -280.61,400.54 -937.12,337.79 -1136.42,237.63 -40.14,-237.67 176.09,-1145.53 277.17,-1344.95 825.87,-84.55 642.22,50.65 688.54,509.72 99.68,-41.25 62.24,-0.87 107.24,-99.97l170.17 -713.68c41.04,-128.45 80.02,-164.55 21.83,-265.43 -141.79,89.66 -120.44,296.01 -287.46,388.52 -133.27,73.81 -500.17,41.16 -672.22,44.65 25.87,-232.68 239.75,-1059.16 326.01,-1232.86 1030.98,-124.23 766.9,254.79 869.44,556.73 124.66,-54.62 37.04,50.69 99.27,-120.12 10.63,-29.18 31.37,-133.27 41.23,-171.71 34.57,-134.74 74.42,-230.07 68.51,-362.49 -203.92,-50.61 -1030.66,-12.81 -1362.05,-16.48 -124.54,-1.38 -258.75,-31.75 -375.35,8.92l-52.46 29.28z"/>
   <path class="fil3" d="M17237.79 21186.37c122.54,248.94 430.28,-197.02 210.42,648.55 -70.58,271.46 -472.02,1977.46 -548.84,2096.89 -129.2,200.86 -241.25,12.58 -353.39,182.61 91.41,73.48 759.1,32.18 959.81,32.15 329.42,-0.04 944.77,81.01 1035.36,-88.54l141.84 -623.46c-187.13,69.64 -62.79,41.39 -219.66,296.5 -71.14,115.68 -142.8,183.35 -290.7,238.57 -208.17,77.72 -703.52,159.61 -859.18,-25.76 -60.73,-252.57 210.49,-1009.35 257.05,-1319.1 322.01,-9.4 633.11,-77.76 698.23,126.4 22.66,71.02 11.86,59.58 12.92,127.39 0.8,51.58 -7.78,87.91 -1.15,140.63l36.68 116.22c76.22,-47.64 46.06,34.52 101.44,-260.46 40.12,-213.69 211.48,-714.17 180.78,-803.86 -320.15,112.01 118.94,489.36 -979.8,416.29 22.53,-179.22 251.33,-1081.47 326.54,-1213.45 157.32,-42.41 554.38,-49.32 685.2,22.22 212.01,115.93 73.37,383.15 215.01,517.63 97.22,-91.3 180.09,-496.92 178.51,-662.7 -200.78,-15.13 -1709.64,-40.28 -1787.07,35.28z"/>
   <path class="fil3" d="M14652.91 21186.37c31.46,99.67 -1.42,44.21 95.22,85.31 2.52,1.07 90.09,16.66 133.38,33.98 33.39,198.9 -262.82,1246.56 -333.5,1507.81 -53.31,197.01 -224.16,957.43 -311.36,1100.94 -120.82,198.83 -210.38,25.31 -289.82,200.01 90.17,79.97 741.85,49.49 804.39,0 -61.84,-127.47 -118.23,-46.79 -266.12,-154.3 -92.03,-298.72 402.22,-2121.01 513.33,-2495.49 116.06,159.57 615.69,1665.05 743.8,2050.03l281.89 674.01c77.19,-132.87 524.91,-2023.75 631.74,-2441.56 218.4,-854.19 354.64,-260.71 454.09,-560.74 -101.79,-65.27 -243.19,-25.07 -380.12,-23.65 -157.73,1.63 -318.7,-47.16 -420.45,23.65 60.27,147.6 103.29,46.73 276.28,107.68 46.86,213.98 -375.31,1970.97 -483.86,2145.08 -307.67,-737.61 -547.26,-1567.04 -861.18,-2279.86 -161.98,-23.74 -459.22,-52.59 -587.71,27.1z"/>
   <path class="fil3" d="M5052.73 21808.83c347.7,-257.57 -17.66,-518.84 1015.14,-538.71 5.24,88.95 -582.38,2536.95 -690.56,2674.76 -71.92,91.6 -47.81,56.4 -159.87,83.82 -208.45,51.01 -102.14,-48.65 -169.59,85.72 96.02,80.28 491.04,34.44 782.88,44.92 34.28,1.23 106.32,3.49 137.66,-1.9l110.04 -43.02c-76.75,-132.63 -18.85,-36.45 -139.4,-77.25 -128.7,-43.55 -46.21,49.74 -138.6,-78.11 -96.72,-130.69 228.08,-1154.71 286.75,-1385.79l269.96 -1071.27c56.71,-257.43 -6.84,-230.08 424.21,-230.27 415.76,-0.17 259.61,193.21 308.79,515.15 161.8,-72.79 265.74,-735.7 253.54,-840.59 -207.87,83.91 -19.36,201.49 -421.22,201.5l-1571.92 -9.85 -71.49 -176.42c-3.07,-5.88 -8.64,-17.44 -14.65,-25l-93.82 192.43c-50.45,190.03 -179.68,577.08 -117.85,679.88z"/>
   <path class="fil4" d="M-1395.82 22599.82c-79.73,369.91 -211.64,743.15 -276.86,1106 -52.7,293.2 67.54,324.05 338.89,321.69 225.88,-1.98 435.5,-19.38 603.97,-121.44 218.83,-132.55 483.35,-555 359.95,-967.17 -114.85,-383.59 -601.11,-398.67 -1025.95,-339.08z"/>
   <path class="fil3" d="M10873.57 23309.24c-117.11,42.07 -112.24,144.93 -181.78,271.1 -542.02,983.46 -1615.81,423.76 -1456,-719.39 127.07,-908.95 1042.28,-1683.82 1745.54,-1666.76 365.23,8.86 144.18,457.46 201.82,696.94 150.34,-44.18 90.3,-49.49 188.69,-419.37 52,-195.51 134.48,-331.92 -81.33,-382.1 -679.05,-157.9 -1856.83,388.24 -2271.18,1312.3 -471.18,1050.81 264.87,2129.47 1509.86,1720.78 218.52,-71.73 207.05,-100.89 265.83,-332.14 33.45,-131.63 124.84,-363 78.55,-481.36z"/>
   <path class="fil5" d="M8385.86 26595.3l227.44 79.25c-15.95,186.68 -312.15,1129.28 -402.92,1409.2 -100.43,309.7 -159.3,130.59 -317.07,264.01 61.27,44.61 669.32,44.79 742.33,0l-217.74 -75.31c-1.11,-144.79 65.35,-307.94 104.02,-442.23 77.7,-269.82 38.23,-257 337.89,-259.9 46.25,156.34 225.81,682.01 309.61,787.19l364.91 6.59c-36.43,-130.91 -117.76,87.01 -282.25,-370.51 -55.4,-154.1 -116.18,-319.39 -171.7,-457.22 76.05,-63.97 799.38,-321.81 583.23,-798.68 -84.63,-186.73 -301.02,-176.11 -553.22,-175.53 -129.09,0.3 -679.71,-22.26 -724.53,33.14z"/>
   <path class="fil3" d="M6957.73 23357.77c-6.2,6.65 -14.61,8.61 -16.6,21.64 -1.99,13.05 -12.8,16.95 -15.3,22.64 -59.23,135.1 -57.77,471.01 -44.24,616.64 549.89,233.87 914.53,298.11 1332.21,-130.33 701.23,-719.27 -244.09,-1485.87 -442.68,-1787.58 -126.75,-192.55 -216.82,-437.27 -39.71,-668.76 105.81,-138.31 344.81,-287.52 610.99,-221.19 379.08,94.47 192.69,393.02 308.67,604.55 75.24,-33.12 63.18,-12.21 105.91,-239.24 22.99,-122.12 44.28,-187.1 42.25,-319.22 -367.39,-338.57 -1085.95,-172.02 -1305.97,182.62 -319.36,514.77 -1.97,990.72 274.85,1265.26 273.48,271.21 632.07,861.42 171.51,1228 -166.28,132.35 -473.38,203.62 -693.07,69.04 -95.54,-58.52 -160.43,-148.15 -193.18,-263.57 -40.04,-141.15 -9.09,-265.78 -95.64,-380.5z"/>
   <path class="fil4" d="M-5555.48 22062.59c-889.57,279.03 -1329.55,2221.1 -663.9,1860.38 458.05,-248.22 1559.4,-2141.26 663.9,-1860.38z"/>
   <path class="fil5" d="M-6434.92 26583.87c102.83,92.86 84.13,6.86 210.91,93.95 11.38,132.08 -305.73,1106.97 -382.59,1370.03 -96.08,328.88 -147.57,155.82 -323.41,299.91 87.2,58.9 208.88,22.61 340.68,20.81 192.37,-2.63 273.63,38.76 395.24,-20.81 -7.96,-5.63 -21.78,-20.68 -26.27,-12.84l-52.79 -23.55c-7.42,-2.93 -18.38,-6.99 -26.48,-10.05 -98.5,-37.23 13.2,21.98 -102.28,-35.02 -12.46,-164.86 118.34,-523.77 176.13,-684.55 360.9,-17.93 1163.12,-37.04 1169.65,-645.78 3.26,-304.72 -226.69,-370.71 -507.86,-373.6 -166.99,-1.71 -772.86,-35.77 -870.93,21.5z"/>
   <path class="fil3" d="M19376.17 21186.37c74.14,160.85 152.29,21.75 331.01,161.43 24.56,209.4 -438.88,1859.37 -540.33,2277.02 -164.64,677.75 -332.46,267.15 -455.15,489.6 43.27,39.8 7.48,56.47 238.1,46.09 298.05,-13.42 702.71,35.79 794.9,-46.09 -65.23,-149.35 -106.6,-15.52 -285.96,-118.5 -53,-223.24 254.44,-1231.11 324.48,-1520.83 34.35,-142.11 239.6,-1018.88 304.42,-1105.76 61.05,-81.83 47.19,-54.48 156.42,-85.35 191.08,-53.99 106.66,39.3 159.39,-97.61 -118.06,-69.53 -338.8,-23.77 -498.77,-22.56 -164.29,1.25 -413.61,-55.82 -528.51,22.56z"/>
   <path class="fil4" d="M25990.66 22719.61c986.61,31.83 1346.54,-990.5 1040.22,-1357 -111.18,-133.02 -349.4,-130.08 -530.83,-107.6 -217.2,26.9 -194.26,193.25 -250.24,418.4 -77.89,313.33 -221.44,753.04 -259.15,1046.2z"/>
   <path class="fil4" d="M1088.36 22729.05c1243.04,-115.55 1263.26,-1119.27 1034.1,-1364.2 -106.74,-114.09 -330.42,-137.25 -527.69,-109.02 -202.82,29.02 -190.41,184.91 -242.46,393.44 -83.56,334.7 -209.36,738.76 -263.95,1079.78z"/>
   <path class="fil4" d="M-1047.46 21296.1c-66.01,180.94 -287.53,993.14 -300.34,1175.52 584.13,47.48 983.67,-71.71 1143.81,-510.21 237.62,-650.64 -261.45,-804.86 -843.47,-665.31z"/>
   <path class="fil5" d="M4135.65 26619.15c133.01,39.41 96.83,-12.37 218.58,70.55 -1.94,80.01 -378.94,1480.22 -485.32,1567.18 -89.17,72.9 -36.85,14.08 -202.85,79.03 -6.12,2.39 -18.22,6.27 -25.9,11.85l50.84 18.64c79.62,14.49 622.43,17.63 688.93,-18.64l-209.94 -67.1c-1.52,-206.46 148.47,-604.72 210.07,-813.25l973.78 -0.91c-236.59,1066.58 -322.62,738.52 -497.48,881.26 59.39,42.05 668.96,46.75 742.6,0l-215.89 -74.19c-9.44,-169.45 187.16,-721.17 244.67,-903.34 47.5,-150.47 90.37,-300.51 138.88,-460.4 76.1,-250.86 57.27,-210.89 302.79,-290.68 -78.94,-88.41 -36.05,-48.69 -346.18,-46.4 -65.71,0.49 -162.13,-11.29 -214.41,-9.26 -58.18,2.26 -42.16,-4.59 -96.52,13.38 -114.15,37.73 4.22,-40.24 -78.14,47.86l231.53 38.17c16.04,153.49 -132.82,602.01 -189.07,724.91l-954.63 -0.5c10.65,-144.78 89.87,-350.94 131,-492.27 101.99,-350.47 169.58,-158.1 314.05,-309.31 -128.92,-30.96 -647.88,-56.34 -731.39,33.42z"/>
   <path class="fil5" d="M18437.11 27991.26l-108.86 86.64c-384.72,344.67 -734.14,214.84 -688.93,-224.03 284.52,-130.8 899.2,-39.77 967.63,-462.06 83.74,-516.69 -614.41,-365.11 -868.41,-115.83 -662.77,650.46 -250.11,1304.52 304.7,1080.55l308.99 -218.45c72.87,-80.7 47.83,-27.13 84.88,-146.82z"/>
   <path class="fil6" d="M6535.61 26583.87l73.55 37.34c7.1,2.65 18.05,6.8 25.94,9.45 19.12,6.4 87.05,19.6 107.48,25.91 7.26,133.89 -389.6,1516.21 -480.03,1595.05 -62.72,54.68 -61.09,28.83 -175.64,72.22 -8.04,3.05 -20.66,9 -27.17,11.59 -6.55,2.6 -18.87,6.69 -27,12.33 8.35,4.28 21.95,-1.47 26.77,8.78 6.85,14.6 1298.86,29.79 1370.41,-20.04 110.84,-77.19 106.72,-169.57 156.38,-385.64 -116.56,30.94 -253.44,455.41 -869.35,348.24 -10.2,-1.78 -19.45,-3.45 -28.9,-5.86l-94.61 -45.42c-38.79,-132.44 122.6,-665.76 201.57,-800.94 175.74,-1.54 306.17,-18.38 464.15,34.74l31.64 262.54c113.59,-18.24 33.15,78.11 133.55,-270.26 37.72,-130.88 89.28,-218.91 107.74,-362.21 -169.53,81.33 -93.5,162.68 -240.93,229.87 -110.08,50.18 -354.1,34.17 -482.04,32.89 15.54,-68.52 176.38,-686.34 250.96,-732.08 107.43,-31.28 316.98,-40.27 442.46,-0.09 169.16,54.18 106.21,201.82 196.03,317.32 79.08,-82.86 135.44,-267.46 118.87,-388.23 -212.02,-23.75 -1151.14,-51.66 -1281.83,12.5z"/>
   <path class="fil5" d="M26336.4 27287.3c233.68,-6.04 395.61,-76.12 511.82,148.69 96.07,185.87 38,444.47 -54.72,603.62 -208.95,358.7 -736.19,434.48 -795.58,-149.05 -48.74,-478.82 204.82,-851.07 432.97,-1060.56 145.63,-133.72 245.9,-202.45 451.07,-289.23 131.97,-55.81 476.75,-105.8 562.06,-168.57 -240.05,-147.15 -975.92,231.66 -1252.64,465.36 -273.16,230.71 -583.2,811.44 -296.15,1304.79 257.46,442.5 972.23,272.59 1163.74,-155.53 281.14,-628.51 -403.54,-1063.51 -722.57,-699.52z"/>
   <path class="fil5" d="M24826.95 27642.2c-129.56,-69.59 -285.12,150.81 -473.51,-109.26 -416.35,-574.79 658.54,-1474.24 813.18,-560.1 73,431.54 -124.91,828.76 -412.78,1108.39 -188.16,182.77 -469.68,324.47 -746.48,383.18 -146.5,31.07 -199.5,3.55 -288.43,100.86 960.87,100.43 2115.05,-1083.99 1546.17,-1803.39 -326.78,-413.23 -913.35,-258.05 -1133.81,132.19 -345.06,610.79 405.73,1131.67 695.66,748.13z"/>
   <path class="fil3" d="M-4501.21 22631.96c207.6,-49.96 183.38,-342.58 452.28,-393.07 107.53,259.13 -463.59,1492.42 -320.14,1946.35 206.72,28.91 337.81,-80.97 492.44,-286.23 65.31,-86.68 229.71,-307.77 231.18,-423.7 0.93,-72.43 6.42,-24.79 -15.43,-64.46 -168.25,165.65 -186.49,433.92 -425.7,489.53 -45.61,-177.23 256.25,-1233.59 325.44,-1505.61 252.22,-991.5 -649.77,-111.37 -740.07,237.19z"/>
   <path class="fil3" d="M13798.46 27481.91c192.6,-133.44 111.21,-233.45 372.57,-281.25 -2.75,298.63 -225.97,785.67 -271.63,1002.03 -7.4,35.08 -10.62,49.34 -9.46,82.67 2.04,58.74 3.76,49.98 17.52,81.13 186.27,-13.53 113.94,26.41 182.42,-118.54 23.29,-49.29 53.06,-139.48 81.8,-199.52 69.63,-145.46 134.43,-267.11 213.1,-387.66 78.4,-120.12 435.98,-603.49 595.44,-465.83 12.4,10.67 129.4,-39.93 -1.64,282.48 -106.91,263.01 -407.99,874.85 -147.33,906.29 196.11,23.66 445.35,-264.13 500.25,-442.75 -177.79,106.34 -155.7,290.37 -384.62,284.34 -42.94,-318.01 517.77,-1027.54 205.84,-1157.59 -53.97,-22.5 -17.37,-16.15 -82.34,-21.14 -69.86,-5.37 -111.58,10.81 -170.02,34.77 -245.49,100.64 -536.73,461.76 -659.83,689.3 21.36,-140.03 253.62,-609.74 71.89,-709.95 -168.57,-92.95 -446.02,233.92 -513.96,421.22z"/>
   <path class="fil5" d="M-4292.82 26689.7c-37.33,533.93 -869.11,1829.76 351.04,1706.82 694.38,-69.97 649.63,-887.58 989.12,-1742.63 146.71,-38.94 131.54,8.6 216.72,-86.78l-588.66 0.43c93.47,93.97 76.05,47.4 222.05,88.74 15.49,223.19 -171.85,758.56 -241.8,985.25 -105.87,343.1 -176.2,635.74 -563.13,679.46 -540.6,61.07 -538.23,-256.84 -415.05,-670.52 93.74,-314.82 197.01,-678.57 301.43,-969.81l255.47 -57.59c-72.69,-78.04 31.55,-40.68 -140.02,-57.49l-594.18 15.1c107.34,118.77 61.44,-3 207.01,109.02z"/>
   <path class="fil4" d="M-2138.17 27434.73c-39.22,136.28 -208.34,618.08 -209.82,708.82 -6.38,391.83 1231.08,69.59 938.24,-528.86 -113.5,-231.94 -468.16,-190.4 -728.42,-179.96z"/>
   <path class="fil4" d="M22578.45 27485.9c-664.53,216.14 -458.52,956.71 127.94,842.24 218.25,-42.6 447.01,-228.99 394.69,-496.43 -33.91,-173.31 -334.63,-406.96 -522.63,-345.81z"/>
   <path class="fil5" d="M2195.23 27894.46c-55.32,78.63 -76.95,292.08 -29.16,371.04 416.47,442.19 1575.03,-161.14 929.33,-817.43 -200.31,-203.6 -565.81,-467.98 -338.98,-725.68 73.94,-84 288.9,-153.45 445.22,-120.75 235.66,49.3 171.78,197.9 216.35,370.02 98.43,-76.59 108.23,-210.33 122.06,-362.89 -303.85,-101.78 -679.36,-126.9 -912.61,89.52 -627.32,582.05 928.55,999.96 292.1,1526.77 -119.64,99.02 -319.26,137.23 -488.26,63.96 -184.37,-79.94 -121.52,-249.07 -236.05,-394.56z"/>
   <path class="fil5" d="M-68.13 26659.74c2.42,80.94 -364.86,1489.73 -483.17,1586.97 -69.64,57.24 -149.66,40.92 -225.71,101.05 126.27,42.03 1094.84,47.71 1194.53,-4.52 95.57,-66.06 121.5,-262.37 145.36,-377.69 -185.92,34.45 -173.53,497.09 -826.72,303.67 11,-216.49 380.98,-1361.48 467.3,-1594.68l260.29 -50.7c-74.02,-84.96 1.93,-56.03 -349.63,-51.17 -139.16,1.93 -244.79,-16.06 -383.54,3.22 6.51,6.98 18.8,5.46 22.84,17.29l178.45 66.56z"/>
   <path class="fil4" d="M-6193.54 27497.42c968.42,40.07 955.16,-640.66 840.46,-771.71 -66.62,-76.13 -223.68,-96.51 -355.45,-94.38 -209.86,3.4 -232.04,4.49 -290.78,188.86 -53.81,168.86 -171.81,514.12 -194.23,677.23z"/>
   <path class="fil5" d="M20571.63 26866.09c139.36,60.27 298.79,-91.67 497.22,-106.9l-406.93 1393.84c-105.89,265.4 -237.43,82.47 -396.09,194.73 90.4,58.85 308.31,18.62 450.21,19.57 295.36,1.99 351.55,37.74 471.93,-19.57 -8.94,-5.2 -23.42,-20.1 -28.9,-11.3l-271.93 -49.42c-10.5,-413.96 452.59,-1312.22 483.25,-1756.98l-798.76 336.03z"/>
   <path class="fil4" d="M8627.32 27496.64c792.61,90.2 1201.01,-926.91 412.04,-871.66 -180.47,12.64 -164.42,34.61 -212.66,204.88 -62.8,221.63 -134.17,455.58 -199.38,666.78z"/>
   <path class="fil5" d="M1316.48 26622.34c109.64,21.84 134.46,-8.45 238.04,67.36 -6.68,195.88 -183.46,694.43 -249.74,908.15 -206.95,667.38 -134.56,630.86 -407.51,726.23l-60.01 23.68c9.28,4.48 23.7,-1.64 29.33,9.78 11.49,23.32 645.6,31.76 712.57,-9.78l-216.1 -76.43c-2.51,-160.53 305.21,-1095.49 383.68,-1360.24 72.65,-245.1 59.35,-210.73 301.93,-291.94 -79.4,-87.79 -18.28,-48.62 -347.15,-46.56 -108.81,0.68 -214.83,-26.5 -309.82,4.27 -110.15,35.69 -0.38,-34.51 -75.22,45.48z"/>
   <path class="fil2" d="M-2105.49 27359.98c265.79,-1.17 506.69,7.73 684.96,-123.86 130.49,-96.31 438.87,-588 -195.22,-604.07 -151.3,-3.83 -249.77,-17.61 -308.09,100.4 -30.87,62.46 -169.7,552.27 -181.65,627.53z"/>
   <path class="fil4" d="M22773.7 26615.22c-175.85,75.82 -374.79,230.29 -219.58,493.4 91.11,154.44 307.24,243.36 519.66,141.16 574.23,-276.28 164.47,-834.87 -300.08,-634.56z"/>
   <path class="fil5" d="M16899.69 27957.57c-163.89,53.87 -217.68,222.94 -428.39,276.32 -251.29,63.65 -405.76,-37.18 -426.49,-273.41 -35.41,-403.58 286,-840.59 614.31,-842.13 70.21,57.43 246.12,311.31 356.1,65.24 -139.5,-334.79 -1072.87,-55.7 -1183.64,619.9 -130.7,797.11 834.87,720.3 1068.11,154.08z"/>
   <path class="fil5" d="M11860.54 28219.77c-465.23,317.18 -411.54,-98.27 -634.19,-186.3l-78.59 205.12c292.89,266.33 823.06,186.68 900.82,-161.69 85.44,-382.76 -498.44,-473.95 -451.86,-832.94 110.88,-336.7 486.47,56.86 593.65,86.9l35.13 -217.14c-327.87,-111.68 -783.09,-87.73 -805.05,289.12 -21.61,370.89 502.28,381.3 440.09,816.93z"/>
   <path class="fil4" d="M17662.62 27767.59c179.91,-9.59 395.9,-54.72 540.86,-133.64 82.3,-44.8 325.43,-311.45 175.45,-476.59 -255.92,-281.77 -685.58,338.57 -716.31,610.23z"/>
  </g>
 </g>
</svg>
